<svg xmlns="http://www.w3.org/2000/svg" width="1184.95" height="1260.449" viewBox="0 0 1184.95 1260.449">
  <path id="Path_2" data-name="Path 2" d="M2180.877,233.344c1.768-1.406-481.48,5.916-491.579,0-10.1.867-180.019.867-235.564,0-8.332.867-73.788,117.626-183.616,173.4-211.206,107.263,12.017,278.61-170.057,399.924s-89.945,328.986,70.281,358.458,97.228,168.092,272.018,237.83,263.347-41.79,427.145,41.123c191.51,96.941,270.465,45.061,299.506-98.958-.418-3.607,12.272,3.872,11.867,0C2190.692,1055.1,2179.133,234.731,2180.877,233.344Z" transform="translate(-999.927 -233.16)" fill="#38d39f"/>
</svg>
